<?xml version="1.0" standalone="no"?>
<!DOCTYPE svg PUBLIC "-//W3C//DTD SVG 20010904//EN"
 "http://www.w3.org/TR/2001/REC-SVG-20010904/DTD/svg10.dtd">
<svg version="1.0" xmlns="http://www.w3.org/2000/svg"
 width="256.000000pt" height="256.000000pt" viewBox="0 0 256.000000 256.000000"
 preserveAspectRatio="xMidYMid meet">

<g transform="translate(0.000000,256.000000) scale(0.100000,-0.100000)"
fill="#000000" stroke="none">
<path d="M1235 2530 l-1050 -5 -48 -28 c-60 -35 -113 -107 -127 -172 -8 -35
-10 -359 -8 -1075 l3 -1025 29 -53 c33 -59 88 -108 144 -128 30 -11 250 -13
1105 -14 1169 0 1097 -4 1176 59 20 16 50 53 67 83 l29 53 0 1055 0 1055 -27
51 c-42 80 -111 130 -196 142 -26 4 -519 5 -1097 2z m135 -373 l0 -94 -97 -6
c-127 -9 -729 -9 -866 0 l-107 6 0 94 0 93 535 0 535 0 0 -93z m970 -1116 l0
-760 -26 -20 c-27 -21 -30 -21 -1034 -21 -1004 0 -1007 0 -1034 21 l-26 20 0
760 0 759 1060 0 1060 0 0 -759z"/>
<path d="M1200 1647 c-112 -25 -203 -95 -255 -197 -24 -47 -45 -132 -45 -179
0 -25 -4 -29 -40 -35 -23 -4 -54 -18 -72 -35 l-33 -29 -3 -321 c-3 -355 -2
-363 61 -401 30 -19 53 -20 476 -20 l443 0 39 39 39 39 0 318 c0 298 -1 321
-20 351 -22 37 -41 48 -93 58 -36 7 -37 9 -37 49 0 59 -26 142 -63 200 -79
125 -250 195 -397 163z m157 -216 c52 -24 91 -80 99 -144 l7 -47 -182 0 -181
0 0 30 c0 39 24 98 53 129 48 52 130 65 204 32z m-1 -455 c27 -27 34 -42 34
-74 0 -23 -4 -44 -10 -47 -6 -3 -10 -52 -10 -111 l0 -104 -85 0 -85 0 0 99 c0
75 -4 101 -15 111 -32 26 -9 112 37 144 12 9 40 16 61 16 31 0 46 -7 73 -34z"/>
</g>
</svg>
